<svg width="23" height="23" viewBox="0 0 23 23" fill="none" xmlns="http://www.w3.org/2000/svg">
<path d="M11.2941 0C5.0566 0 0 5.0566 0 11.2941C0 16.5906 3.64664 21.0351 8.56591 22.2557V14.7456H6.23706V11.2941H8.56591V9.80691C8.56591 5.96284 10.3057 4.18108 14.0797 4.18108C14.7953 4.18108 16.03 4.32158 16.535 4.46163V7.5901C16.2685 7.56209 15.8054 7.54808 15.2303 7.54808C13.3786 7.54808 12.663 8.24967 12.663 10.0734V11.2941H16.3521L15.7182 14.7456H12.663V22.5056C18.2554 21.8302 22.5887 17.0686 22.5887 11.2941C22.5882 5.0566 17.5316 0 11.2941 0Z" fill="#050505"/>
</svg>
