<svg width="23" height="23" viewBox="0 0 23 23" fill="none" xmlns="http://www.w3.org/2000/svg">
<g clip-path="url(#clip0_1_472)">
<path d="M11.4706 2.03382C14.4882 2.03382 14.8456 2.04706 16.0323 2.1C17.1353 2.14853 17.7309 2.33382 18.1279 2.48823C18.6529 2.69118 19.0323 2.93823 19.425 3.33088C19.822 3.72794 20.0647 4.10294 20.2676 4.62794C20.422 5.025 20.6073 5.625 20.6559 6.72353C20.7088 7.9147 20.722 8.27206 20.722 11.2853C20.722 14.3029 20.7088 14.6603 20.6559 15.8471C20.6073 16.95 20.422 17.5456 20.2676 17.9426C20.0647 18.4676 19.8176 18.8471 19.425 19.2397C19.0279 19.6368 18.6529 19.8794 18.1279 20.0823C17.7309 20.2368 17.1309 20.4221 16.0323 20.4706C14.8412 20.5235 14.4838 20.5368 11.4706 20.5368C8.45292 20.5368 8.09557 20.5235 6.9088 20.4706C5.80586 20.4221 5.21028 20.2368 4.81322 20.0823C4.28822 19.8794 3.9088 19.6324 3.51616 19.2397C3.1191 18.8426 2.87645 18.4676 2.67351 17.9426C2.5191 17.5456 2.33381 16.9456 2.28528 15.8471C2.23233 14.6559 2.2191 14.2985 2.2191 11.2853C2.2191 8.26765 2.23233 7.91029 2.28528 6.72353C2.33381 5.62059 2.5191 5.025 2.67351 4.62794C2.87645 4.10294 3.12351 3.72353 3.51616 3.33088C3.91322 2.93382 4.28822 2.69118 4.81322 2.48823C5.21028 2.33382 5.81028 2.14853 6.9088 2.1C8.09557 2.04706 8.45292 2.03382 11.4706 2.03382ZM11.4706 0C8.40439 0 8.02057 0.0132353 6.81616 0.0661765C5.61616 0.119118 4.79116 0.313235 4.07645 0.591176C3.33086 0.882353 2.69998 1.26618 2.07351 1.89706C1.44263 2.52353 1.05881 3.15441 0.767629 3.89559C0.489688 4.61471 0.29557 5.43529 0.242629 6.63529C0.189688 7.84412 0.176453 8.22794 0.176453 11.2941C0.176453 14.3603 0.189688 14.7441 0.242629 15.9485C0.29557 17.1485 0.489688 17.9735 0.767629 18.6882C1.05881 19.4338 1.44263 20.0647 2.07351 20.6912C2.69998 21.3176 3.33086 21.7059 4.07204 21.9926C4.79116 22.2706 5.61175 22.4647 6.81175 22.5176C8.01616 22.5706 8.39998 22.5838 11.4662 22.5838C14.5323 22.5838 14.9162 22.5706 16.1206 22.5176C17.3206 22.4647 18.1456 22.2706 18.8603 21.9926C19.6014 21.7059 20.2323 21.3176 20.8588 20.6912C21.4853 20.0647 21.8735 19.4338 22.1603 18.6926C22.4382 17.9735 22.6323 17.1529 22.6853 15.9529C22.7382 14.7485 22.7514 14.3647 22.7514 11.2985C22.7514 8.23235 22.7382 7.84853 22.6853 6.64412C22.6323 5.44412 22.4382 4.61912 22.1603 3.90441C21.8823 3.15441 21.4985 2.52353 20.8676 1.89706C20.2412 1.27059 19.6103 0.882353 18.8691 0.595588C18.15 0.317647 17.3294 0.123529 16.1294 0.0705882C14.9206 0.0132353 14.5367 0 11.4706 0Z" fill="#EA002A"/>
<path d="M11.4701 5.49219C8.26717 5.49219 5.66864 8.09072 5.66864 11.2937C5.66864 14.4966 8.26717 17.0951 11.4701 17.0951C14.673 17.0951 17.2716 14.4966 17.2716 11.2937C17.2716 8.09072 14.673 5.49219 11.4701 5.49219ZM11.4701 15.0569C9.39217 15.0569 7.70687 13.3716 7.70687 11.2937C7.70687 9.21572 9.39217 7.53042 11.4701 7.53042C13.5481 7.53042 15.2333 9.21572 15.2333 11.2937C15.2333 13.3716 13.5481 15.0569 11.4701 15.0569Z" fill="#EA002A"/>
<path d="M18.854 5.26066C18.854 6.01066 18.2452 6.61508 17.4996 6.61508C16.7496 6.61508 16.1452 6.00625 16.1452 5.26066C16.1452 4.51066 16.754 3.90625 17.4996 3.90625C18.2452 3.90625 18.854 4.51507 18.854 5.26066Z" fill="#EA002A"/>
</g>
<defs>
<clipPath id="clip0_1_472">
<rect width="22.5882" height="22.5882" fill="white" transform="translate(0.176453)"/>
</clipPath>
</defs>
</svg>
