<svg width="24" height="23" viewBox="0 0 24 23" fill="none" xmlns="http://www.w3.org/2000/svg">
<g clip-path="url(#clip0_1_476)">
<path d="M21.6809 0H2.43236C1.5103 0 0.764709 0.727941 0.764709 1.62794V20.9559C0.764709 21.8559 1.5103 22.5882 2.43236 22.5882H21.6809C22.6029 22.5882 23.3529 21.8559 23.3529 20.9603V1.62794C23.3529 0.727941 22.6029 0 21.6809 0ZM7.46618 19.2485H4.11324V8.46617H7.46618V19.2485ZM5.78971 6.99706C4.71324 6.99706 3.84412 6.12794 3.84412 5.05588C3.84412 3.98382 4.71324 3.1147 5.78971 3.1147C6.86177 3.1147 7.73088 3.98382 7.73088 5.05588C7.73088 6.12353 6.86177 6.99706 5.78971 6.99706ZM20.0132 19.2485H16.6647V14.0073C16.6647 12.7588 16.6426 11.1485 14.9221 11.1485C13.1794 11.1485 12.9147 12.5118 12.9147 13.9191V19.2485H9.57059V8.46617H12.7824V9.9397H12.8265C13.2721 9.09264 14.3662 8.19706 15.9941 8.19706C19.3868 8.19706 20.0132 10.4294 20.0132 13.3323V19.2485Z" fill="#050505"/>
</g>
<defs>
<clipPath id="clip0_1_476">
<rect width="22.5882" height="22.5882" fill="white" transform="translate(0.764709)"/>
</clipPath>
</defs>
</svg>
