<svg width="24" height="23" viewBox="0 0 24 23" fill="none" xmlns="http://www.w3.org/2000/svg">
<path d="M0.941162 22.5882L2.52893 16.7878C1.54916 15.0899 1.03434 13.1652 1.03528 11.1915C1.0381 5.02117 6.05928 0 12.2287 0C15.2226 0.000941176 18.0329 1.16706 20.1468 3.28282C22.2597 5.39859 23.423 8.21082 23.4221 11.2019C23.4193 17.3732 18.3981 22.3943 12.2287 22.3943C10.3557 22.3934 8.5101 21.9238 6.87528 21.0315L0.941162 22.5882ZM7.1501 19.0052C8.72751 19.9416 10.2334 20.5026 12.2249 20.5035C17.3525 20.5035 21.5294 16.3303 21.5322 11.2C21.5341 6.05929 17.3769 1.89176 12.2325 1.88988C7.10116 1.88988 2.92704 6.06306 2.92516 11.1925C2.92422 13.2866 3.53787 14.8546 4.56846 16.4951L3.62822 19.9285L7.1501 19.0052ZM17.8673 13.8626C17.7976 13.7459 17.6113 13.6762 17.3308 13.536C17.0513 13.3958 15.6762 12.7191 15.4193 12.6259C15.1633 12.5327 14.9769 12.4856 14.7896 12.7661C14.6033 13.0456 14.0668 13.6762 13.904 13.8626C13.7412 14.0489 13.5774 14.0725 13.2979 13.9322C13.0183 13.792 12.1167 13.4974 11.0485 12.544C10.2174 11.8024 9.65551 10.8866 9.49269 10.6061C9.32987 10.3266 9.47575 10.1751 9.61504 10.0358C9.74116 9.91059 9.89457 9.70917 10.0348 9.54541C10.1769 9.38353 10.223 9.26682 10.3172 9.07953C10.4103 8.89317 10.3642 8.72941 10.2936 8.58917C10.223 8.44988 9.66398 7.07294 9.43151 6.51294C9.20375 5.968 8.97316 6.04141 8.80187 6.03294L8.2654 6.02353C8.07904 6.02353 7.77598 6.09317 7.51998 6.37365C7.26398 6.65412 6.54116 7.32988 6.54116 8.70682C6.54116 10.0838 7.54351 11.4136 7.68281 11.6C7.82304 11.7864 9.65457 14.6118 12.4602 15.8231C13.1275 16.1111 13.6489 16.2833 14.0546 16.4122C14.7247 16.6249 15.3346 16.5948 15.8165 16.5233C16.3539 16.4433 17.471 15.8466 17.7045 15.1934C17.9379 14.5393 17.9379 13.9793 17.8673 13.8626Z" fill="#050505"/>
</svg>
