<svg width="23" height="23" viewBox="0 0 23 23" fill="none" xmlns="http://www.w3.org/2000/svg">
<g clip-path="url(#clip0_1_478)">
<path d="M22.7161 6.7756C22.7161 6.7756 22.4955 5.21824 21.8161 4.53442C20.9558 3.63442 19.9941 3.63001 19.5529 3.57707C16.3941 3.34766 11.6514 3.34766 11.6514 3.34766H11.6426C11.6426 3.34766 6.89996 3.34766 3.74114 3.57707C3.29996 3.63001 2.3382 3.63442 1.47791 4.53442C0.798493 5.21824 0.582317 6.7756 0.582317 6.7756C0.582317 6.7756 0.352905 8.60648 0.352905 10.4329V12.1447C0.352905 13.9712 0.577905 15.8021 0.577905 15.8021C0.577905 15.8021 0.798493 17.3594 1.47349 18.0432C2.33379 18.9432 3.4632 18.9124 3.96614 19.0094C5.77496 19.1815 11.647 19.2344 11.647 19.2344C11.647 19.2344 16.3941 19.2256 19.5529 19.0006C19.9941 18.9477 20.9558 18.9432 21.8161 18.0432C22.4955 17.3594 22.7161 15.8021 22.7161 15.8021C22.7161 15.8021 22.9411 13.9756 22.9411 12.1447V10.4329C22.9411 8.60648 22.7161 6.7756 22.7161 6.7756ZM9.3132 14.2227V7.87413L15.4147 11.0594L9.3132 14.2227Z" fill="#050505"/>
</g>
<defs>
<clipPath id="clip0_1_478">
<rect width="22.5882" height="22.5882" fill="white" transform="translate(0.352905)"/>
</clipPath>
</defs>
</svg>
